<svg width="403" height="403" viewBox="0 0 403 403" fill="none" xmlns="http://www.w3.org/2000/svg">
<g clip-path="url(#clip0_6_598)">
<path d="M321.327 146.7C363 170.807 363 230.969 321.327 255.075L159.947 348.43C118.213 372.572 66 342.456 66 294.242V107.534C66 59.3201 118.213 29.204 159.947 53.3461L321.327 146.7Z" fill="#7A1C6B"/>
<path d="M147.197 243.08C143.108 247.169 138.822 249.477 134.337 250.005C129.852 250.269 125.566 250.154 121.477 246.065C117.256 241.844 117.141 237.558 117.537 233.205C117.71 231.738 118.073 230.292 118.627 228.867C121.131 222.424 127.429 218.505 133.303 214.863L146.258 206.83C151.309 203.699 151.303 196.348 146.247 193.225L133.575 185.397C127.651 181.738 121.258 177.822 118.755 171.325C118.206 169.9 117.866 168.469 117.735 167.03C117.471 162.545 117.586 158.258 121.675 154.169C125.895 149.949 130.182 149.834 134.535 150.23C138.888 150.626 143.174 152.934 147.395 157.155L164.703 178.303C167.977 182.302 174.127 182.195 177.259 178.083L208.991 136.421C213.212 132.2 217.007 127.676 224.295 126.947C231.583 126.219 236.836 130.014 241.056 134.235C245.145 138.324 247.15 144.326 246.887 148.81C245.874 159.944 234.434 166.541 225.177 172.81L194.98 193.257C190.24 196.467 190.307 203.47 195.106 206.589L223.524 225.058C233.875 231.785 246.498 238.914 247.615 251.209C248.265 258.353 246.006 262.292 241.785 266.513C237.696 270.602 232.311 273.801 224.295 273.072C211.511 271.91 203.758 259.098 196.244 248.691L177.204 222.321C174.131 218.064 167.859 217.872 164.531 221.933L147.197 243.08Z" fill="white"/>
</g>
<defs>
<clipPath id="clip0_6_598">
<rect width="403" height="403" fill="white"/>
</clipPath>
</defs>
</svg>
