<svg width="300" height="300" viewBox="0 0 300 300" fill="none" xmlns="http://www.w3.org/2000/svg">
<g clip-path="url(#clip0_130_12)">
<path d="M200.574 128.243C217.119 137.814 217.119 161.7 200.574 171.271L136.503 208.334C119.933 217.919 99.2035 205.963 99.2035 186.821V112.693C99.2035 93.5513 119.933 81.5946 136.503 91.1795L200.574 128.243Z" fill="#7A1C6B"/>
<path d="M131.441 166.508C129.817 168.131 128.115 169.048 126.335 169.257C124.554 169.362 122.852 169.317 121.229 167.693C119.553 166.018 119.508 164.316 119.665 162.587C119.733 162.005 119.878 161.431 120.097 160.865C121.092 158.307 123.592 156.751 125.924 155.305L131.068 152.116C133.073 150.873 133.071 147.954 131.063 146.715L126.032 143.607C123.68 142.154 121.142 140.599 120.148 138.02C119.93 137.454 119.795 136.886 119.743 136.314C119.639 134.534 119.684 132.832 121.308 131.209C122.983 129.533 124.685 129.487 126.413 129.645C128.141 129.802 129.843 130.718 131.519 132.394L138.391 140.79C139.691 142.378 142.132 142.335 143.376 140.703L155.974 124.162C157.65 122.486 159.157 120.69 162.05 120.401C164.943 120.111 167.029 121.618 168.705 123.294C170.328 124.918 171.124 127.3 171.019 129.081V129.081C170.618 133.501 166.075 136.12 162.4 138.609L150.411 146.727C148.53 148.002 148.556 150.782 150.462 152.02L161.744 159.353C165.854 162.024 170.865 164.854 171.309 169.736V169.736C171.567 172.572 170.67 174.136 168.994 175.812C167.371 177.435 165.233 178.705 162.05 178.416V178.416C156.975 177.954 153.897 172.868 150.913 168.736L143.354 158.266C142.134 156.576 139.644 156.5 138.322 158.112L131.441 166.508Z" fill="white"/>
</g>
<defs>
<clipPath id="clip0_130_12">
<rect width="170" height="170" fill="white" transform="translate(70 70)"/>
</clipPath>
</defs>
</svg>
